<?xml version="1.0" encoding="UTF-8"?>
<svg version="1.1" xmlns="http://www.w3.org/2000/svg" width="1024" height="1024">
<path d="M0 0 C1.72688686 1.49973283 3.43581368 3.02042789 5.125 4.5625 C5.96417969 5.30886719 6.80335938 6.05523437 7.66796875 6.82421875 C25.56621943 23.6125004 36.28906873 48.09687615 37.3828125 72.50390625 C38.17002612 99.73954765 30.75212535 124.41979744 12.5 145 C11.04909524 146.52792196 9.59147394 148.04951476 8.125 149.5625 C7.5990625 150.16191406 7.073125 150.76132812 6.53125 151.37890625 C-8.17678293 167.55023838 -32.80995452 177.57085525 -54.28759766 178.68798828 C-75.1605585 179.44776864 -93.16648374 176.02684689 -111.875 166.5625 C-111.87521737 167.6251515 -111.87543474 168.68780301 -111.87565869 169.78265607 C-111.88556674 216.61794138 -111.90166181 263.45321938 -111.94929504 310.28848267 C-111.9500145 310.99760982 -111.95073395 311.70673697 -111.9514752 312.43735282 C-111.96714813 327.84880681 -111.98393049 343.2602594 -112.00185562 358.67171093 C-112.01063942 366.22954534 -112.01917808 373.78738001 -112.02758789 381.34521484 C-112.02842894 382.09730797 -112.02926999 382.8494011 -112.03013652 383.62428492 C-112.05727962 407.9993029 -112.06823681 432.37429548 -112.07079524 456.74932739 C-112.07351002 481.79903119 -112.09256428 506.84867075 -112.13216115 531.8983447 C-112.13774704 535.43689493 -112.14314625 538.97544543 -112.14843178 542.51399612 C-112.14947781 543.21042974 -112.15052385 543.90686335 -112.15160158 544.62440101 C-112.16795605 555.83251347 -112.16709953 567.04056163 -112.15979717 578.24868088 C-112.15282247 589.51819364 -112.16440576 600.78757392 -112.1936629 612.057061 C-112.20897085 618.16254141 -112.21614322 624.26774914 -112.20159721 630.37323761 C-112.18845687 635.96346781 -112.19831882 641.55316927 -112.22643773 647.14333983 C-112.23255352 649.16503112 -112.23024452 651.18676924 -112.21862926 653.20843641 C-112.10734289 674.22337373 -112.10734289 674.22337373 -119.58466119 682.44155729 C-124.72876952 687.44318195 -130.64895265 689.65550475 -137.75 690 C-145.12123264 689.72824949 -151.40419741 687.29471922 -156.8125 682.25 C-163.75897488 674.60070531 -164.02540111 665.57958213 -164.00642776 655.72106266 C-164.00950672 654.23440111 -164.00950672 654.23440111 -164.01264787 652.71770599 C-164.01832193 649.38210916 -164.01686009 646.04655357 -164.01544189 642.71095276 C-164.01802533 640.30090806 -164.02103843 637.89086379 -164.0244453 635.48082012 C-164.03167426 629.5422309 -164.03421808 623.60365002 -164.03477435 617.66505742 C-164.03568859 610.55133547 -164.0423581 603.43762181 -164.04912117 596.32390343 C-164.0651809 579.12605844 -164.07108531 561.92821435 -164.07586992 544.73036321 C-164.07820682 536.5892015 -164.08180968 528.4480405 -164.0855653 520.30687935 C-164.09840343 492.42308816 -164.1091203 464.53929736 -164.1125679 436.65550327 C-164.11278953 434.90500716 -164.11301132 433.15451105 -164.11323325 431.40401494 C-164.11345389 429.64933787 -164.11367437 427.89466079 -164.1138947 426.13998371 C-164.11433725 422.6199338 -164.11478436 419.09988389 -164.11523438 415.57983398 C-164.11534377 414.7070661 -164.11545316 413.83429821 -164.11556586 412.93508282 C-164.1191927 384.66537207 -164.13509729 356.39568702 -164.15842474 328.1259861 C-164.18305798 298.21894201 -164.19674245 268.31191259 -164.19793582 238.40485805 C-164.19810726 235.11719985 -164.19832269 231.82954166 -164.19857025 228.54188347 C-164.19862602 227.73240387 -164.19868179 226.92292427 -164.19873925 226.08891498 C-164.19988695 213.09656779 -164.21088541 200.10424707 -164.22545731 187.1119088 C-164.23987203 174.03269157 -164.24303142 160.95350805 -164.23501733 147.87428505 C-164.2305837 140.11835437 -164.23432995 132.362533 -164.25025584 124.60661683 C-164.26125186 118.79246121 -164.25629347 112.9784015 -164.24548396 107.16424953 C-164.24353889 104.82890577 -164.24654958 102.49355081 -164.25532833 100.15822274 C-164.38269314 63.95206021 -158.42748216 32.38628095 -133.0625 5.3125 C-97.18642547 -28.77335125 -38.44935109 -30.59701883 0 0 Z " fill="#FDA4AA" transform="translate(593.875,243.4375)"/>
<path d="M0 0 C7.55053891 5.16313042 13.81915733 12.67598328 15.86328125 21.71484375 C17.85259181 32.50063693 16.78208818 42.88523964 10.61328125 52.15234375 C4.4246084 60.10369473 -2.25007723 65.08064788 -12.13671875 67.71484375 C-23.89999662 69.05422687 -34.14426939 67.53087901 -43.94921875 60.52734375 C-52.0661229 53.70275529 -56.48375577 45.07881516 -57.41796875 34.54296875 C-57.76778462 22.12450549 -54.69725701 12.90793409 -46.13671875 3.71484375 C-32.55814689 -7.15580632 -14.99589783 -9.01947054 0 0 Z " fill="#FDA4AA" transform="translate(551.13671875,99.28515625)"/>
</svg>
